<svg width="175" height="16" viewBox="0 0 175 16" fill="none" xmlns="http://www.w3.org/2000/svg">
<rect x="129" width="46" height="16" rx="5" fill="#5D5DC9" fill-opacity="0.2"/>
<path d="M133.361 12V3.27273H136.634C137.304 3.27273 137.866 3.3892 138.321 3.62216C138.778 3.85511 139.124 4.18182 139.357 4.60227C139.592 5.01989 139.71 5.5071 139.71 6.06392C139.71 6.62358 139.591 7.10937 139.352 7.52131C139.116 7.9304 138.768 8.24716 138.308 8.47159C137.848 8.69318 137.283 8.80398 136.612 8.80398H134.281V7.49148H136.399C136.791 7.49148 137.112 7.4375 137.362 7.32955C137.612 7.21875 137.797 7.05824 137.916 6.84801C138.038 6.63494 138.099 6.37358 138.099 6.06392C138.099 5.75426 138.038 5.49006 137.916 5.27131C137.794 5.04972 137.608 4.8821 137.358 4.76847C137.108 4.65199 136.786 4.59375 136.391 4.59375H134.942V12H133.361ZM137.869 8.04545L140.03 12H138.266L136.143 8.04545H137.869ZM142.286 12H140.599L143.671 3.27273H145.623L148.7 12H147.012L144.681 5.0625H144.613L142.286 12ZM142.342 8.57812H146.944V9.84801H142.342V8.57812ZM148.411 4.59801V3.27273H155.374V4.59801H152.676V12H151.108V4.59801H148.411ZM156.716 12V3.27273H162.392V4.59801H158.297V6.96733H162.098V8.29261H158.297V10.6747H162.426V12H156.716ZM168.748 5.67188C168.708 5.29972 168.541 5.00994 168.245 4.80256C167.953 4.59517 167.572 4.49148 167.103 4.49148C166.774 4.49148 166.491 4.54119 166.255 4.64062C166.02 4.74006 165.839 4.875 165.714 5.04545C165.589 5.21591 165.525 5.41051 165.522 5.62926C165.522 5.81108 165.564 5.96875 165.646 6.10227C165.731 6.2358 165.846 6.34943 165.991 6.44318C166.136 6.53409 166.297 6.6108 166.473 6.6733C166.649 6.7358 166.826 6.78835 167.005 6.83097L167.824 7.03551C168.153 7.11222 168.47 7.21591 168.774 7.34659C169.081 7.47727 169.355 7.64205 169.596 7.84091C169.841 8.03977 170.034 8.27983 170.176 8.56108C170.318 8.84233 170.389 9.17187 170.389 9.54972C170.389 10.0611 170.258 10.5114 169.997 10.9006C169.735 11.2869 169.358 11.5895 168.863 11.8082C168.372 12.0241 167.777 12.1321 167.078 12.1321C166.399 12.1321 165.809 12.027 165.309 11.8168C164.812 11.6065 164.423 11.2997 164.142 10.8963C163.863 10.4929 163.713 10.0014 163.69 9.42188H165.245C165.268 9.72585 165.362 9.97869 165.527 10.1804C165.691 10.3821 165.906 10.5327 166.17 10.6321C166.437 10.7315 166.735 10.7812 167.065 10.7812C167.409 10.7812 167.71 10.7301 167.968 10.6278C168.23 10.5227 168.434 10.3778 168.582 10.1932C168.73 10.0057 168.805 9.78693 168.808 9.53693C168.805 9.30966 168.738 9.12216 168.608 8.97443C168.477 8.82386 168.294 8.69886 168.058 8.59943C167.825 8.49716 167.552 8.40625 167.24 8.3267L166.247 8.07102C165.528 7.88636 164.96 7.60653 164.542 7.23153C164.127 6.85369 163.92 6.35227 163.92 5.72727C163.92 5.21307 164.059 4.76278 164.338 4.37642C164.619 3.99006 165.001 3.69034 165.484 3.47727C165.967 3.26136 166.514 3.15341 167.125 3.15341C167.744 3.15341 168.287 3.26136 168.752 3.47727C169.221 3.69034 169.589 3.98722 169.856 4.3679C170.123 4.74574 170.261 5.1804 170.27 5.67188H168.748Z" fill="#D6D4FF"/>
<path d="M13.4495 1.5V14.7578H10.0968V6.52917C10.0968 5.60387 9.34655 4.85285 8.42028 4.85285C7.4945 4.85285 6.74396 5.60339 6.74396 6.52917V14.7578H0V1.5H13.4495Z" fill="#43B9FB"/>
<path d="M15.2217 1.5V14.7658H28.6711V1.5H15.2217ZM22.0632 12.4216L17.7744 8.1328L22.0632 3.84403L26.352 8.1328L22.0632 12.4216Z" fill="#8B85F4"/>
<path d="M41.2107 6.79358V1.50747H30.4424V14.7652H43.8918V6.79358H41.2107ZM33.1669 4.19414H38.4852V6.79358H33.1669V4.19414ZM41.1663 12.0785H33.1669V9.48026L41.1663 9.47911V12.0785Z" fill="#43B9FB"/>
<path d="M59.1135 11.4124V14.7652H45.6641V1.50746H49.0167V11.4124H59.1135Z" fill="#43B9FB"/>
<path d="M60.8862 1.5V14.7658H74.3357V1.5H60.8862ZM67.7278 12.4216L63.439 8.1328L67.7278 3.84403L72.0165 8.1328L67.7278 12.4216Z" fill="#8B85F4"/>
<path d="M79.4591 4.8603V11.4124H89.5559V14.7652H76.1064V1.50746H89.5559V4.8603H79.4591Z" fill="#43B9FB"/>
<path d="M98.1178 8.12534L104.765 14.7727H100.024L94.681 9.43032V14.7727H91.3281V1.50784H94.681V6.81672L100.018 1.5H104.768L98.1178 8.12534Z" fill="#43B9FB"/>
<path d="M109.246 4.19414V6.78554H120.009V14.7652H106.559V12.0785H117.327V9.47222H106.559V1.50747H120.009V4.19414H109.246Z" fill="#43B9FB"/>
</svg>
