<svg width="120" height="28" viewBox="0 0 120 28" fill="none" xmlns="http://www.w3.org/2000/svg">
<path d="M13.4495 0V13.2578H10.0968V5.02917C10.0968 4.10387 9.34655 3.35285 8.42028 3.35285C7.4945 3.35285 6.74396 4.10339 6.74396 5.02917V13.2578H0V0H13.4495Z" fill="#43B9FB"/>
<path d="M15.2214 0V13.2658H28.6709V0H15.2214ZM22.063 10.9216L17.7742 6.6328L22.063 2.34403L26.3517 6.6328L22.063 10.9216Z" fill="#8B85F4"/>
<path d="M41.211 5.29356V0.00744629H30.4426V13.2652H43.8921V5.29356H41.211ZM33.1672 2.69412H38.4854V5.29356H33.1672V2.69412ZM41.1666 10.5785H33.1672V7.98024L41.1666 7.97909V10.5785Z" fill="#43B9FB"/>
<path d="M59.1135 9.91236V13.2652H45.6641V0.00744629H49.0167V9.91236H59.1135Z" fill="#43B9FB"/>
<path d="M60.886 0V13.2658H74.3354V0H60.886ZM67.7275 10.9216L63.4387 6.6328L67.7275 2.34403L72.0163 6.6328L67.7275 10.9216Z" fill="#8B85F4"/>
<path d="M79.4591 3.36029V9.91236H89.5559V13.2652H76.1064V0.00744629H89.5559V3.36029H79.4591Z" fill="#43B9FB"/>
<path d="M98.1176 6.62534L104.765 13.2727H100.023L94.6807 7.93032V13.2727H91.3279V0.00784403H94.6807V5.31672L100.017 0H104.768L98.1176 6.62534Z" fill="#43B9FB"/>
<path d="M109.246 2.69412V5.28552H120.008V13.2652H106.559V10.5785H117.327V7.9722H106.559V0.00744629H120.008V2.69412H109.246Z" fill="#43B9FB"/>
<rect width="30.88" height="11" transform="translate(89.1201 16.2578)" fill="white" fill-opacity="0.08"/>
<path d="M91.8543 25.0579V17.8288H94.431C94.9911 17.8288 95.4559 17.9253 95.8253 18.1182C96.1971 18.3112 96.4748 18.5783 96.6584 18.9195C96.8419 19.2584 96.9337 19.6502 96.9337 20.0949C96.9337 20.5373 96.8407 20.9268 96.6548 21.2633C96.4713 21.5975 96.1936 21.8575 95.8218 22.0434C95.4523 22.2293 94.9876 22.3222 94.4275 22.3222H92.4755V21.3833H94.3287C94.6817 21.3833 94.9688 21.3327 95.19 21.2315C95.4135 21.1303 95.5771 20.9833 95.6806 20.7903C95.7841 20.5973 95.8359 20.3655 95.8359 20.0949C95.8359 19.8219 95.783 19.5854 95.6771 19.3854C95.5735 19.1854 95.41 19.0324 95.1864 18.9265C94.9652 18.8183 94.6746 18.7642 94.3146 18.7642H92.945V25.0579H91.8543ZM95.4229 21.7963L97.209 25.0579H95.9665L94.2157 21.7963H95.4229ZM99.754 25.1779C99.4105 25.1779 99.0998 25.1143 98.8222 24.9873C98.5445 24.8578 98.3244 24.6708 98.1621 24.426C98.0021 24.1813 97.922 23.8813 97.922 23.5259C97.922 23.22 97.9809 22.9682 98.0985 22.7705C98.2162 22.5729 98.375 22.4164 98.5751 22.3011C98.7751 22.1858 98.9986 22.0987 99.2457 22.0399C99.4928 21.981 99.7446 21.9363 100.001 21.9057C100.326 21.8681 100.589 21.8375 100.792 21.8139C100.994 21.7881 101.141 21.7469 101.233 21.6904C101.325 21.6339 101.371 21.5422 101.371 21.4151V21.3904C101.371 21.0821 101.284 20.8432 101.109 20.6738C100.938 20.5044 100.681 20.4197 100.34 20.4197C99.9846 20.4197 99.7046 20.4985 99.4999 20.6562C99.2975 20.8115 99.1575 20.9844 99.0798 21.175L98.0879 20.9491C98.2056 20.6197 98.3774 20.3538 98.6033 20.1514C98.8316 19.9467 99.094 19.7984 99.3905 19.7066C99.687 19.6125 99.9988 19.5654 100.326 19.5654C100.542 19.5654 100.772 19.5913 101.014 19.6431C101.259 19.6925 101.487 19.7843 101.699 19.9184C101.913 20.0526 102.088 20.2444 102.225 20.4938C102.361 20.7409 102.43 21.0621 102.43 21.4574V25.0579H101.399V24.3166H101.357C101.288 24.4531 101.186 24.5872 101.049 24.719C100.913 24.8508 100.738 24.9602 100.524 25.0473C100.309 25.1343 100.053 25.1779 99.754 25.1779ZM99.9835 24.3307C100.275 24.3307 100.525 24.2731 100.732 24.1578C100.941 24.0424 101.1 23.8918 101.208 23.7059C101.319 23.5177 101.374 23.3165 101.374 23.1023V22.4034C101.337 22.4411 101.264 22.4764 101.155 22.5093C101.049 22.5399 100.928 22.567 100.792 22.5905C100.655 22.6117 100.522 22.6317 100.393 22.6505C100.264 22.667 100.155 22.6811 100.068 22.6929C99.8635 22.7188 99.6764 22.7623 99.5069 22.8235C99.3399 22.8847 99.2057 22.9729 99.1045 23.0882C99.0057 23.2012 98.9563 23.3518 98.9563 23.54C98.9563 23.8012 99.0528 23.9989 99.2457 24.133C99.4387 24.2648 99.6846 24.3307 99.9835 24.3307ZM106.366 19.636V20.4832H103.405V19.636H106.366ZM104.199 18.3371H105.254V23.4659C105.254 23.6706 105.285 23.8248 105.346 23.9283C105.407 24.0295 105.486 24.0989 105.583 24.1366C105.681 24.1719 105.789 24.1895 105.904 24.1895C105.989 24.1895 106.063 24.1836 106.126 24.1719C106.19 24.1601 106.239 24.1507 106.275 24.1436L106.465 25.0155C106.404 25.039 106.317 25.0626 106.204 25.0861C106.091 25.112 105.95 25.1261 105.78 25.1285C105.503 25.1332 105.244 25.0837 105.004 24.9802C104.764 24.8767 104.57 24.7166 104.421 24.5001C104.273 24.2837 104.199 24.0119 104.199 23.6848V18.3371ZM109.812 25.1673C109.278 25.1673 108.818 25.0532 108.432 24.8249C108.049 24.5943 107.752 24.2707 107.543 23.8542C107.336 23.4353 107.232 22.9447 107.232 22.3823C107.232 21.8269 107.336 21.3374 107.543 20.9138C107.752 20.4903 108.044 20.1596 108.418 19.922C108.795 19.6843 109.235 19.5654 109.738 19.5654C110.044 19.5654 110.341 19.616 110.628 19.7172C110.915 19.8184 111.172 19.9773 111.401 20.1938C111.629 20.4103 111.809 20.6915 111.941 21.0374C112.073 21.381 112.138 21.7987 112.138 22.2905V22.6646H107.829V21.874H111.104C111.104 21.5963 111.048 21.3504 110.935 21.1362C110.822 20.9197 110.663 20.7491 110.458 20.6244C110.256 20.4997 110.018 20.4373 109.745 20.4373C109.449 20.4373 109.19 20.5103 108.969 20.6562C108.75 20.7997 108.58 20.988 108.46 21.2209C108.343 21.4516 108.284 21.7022 108.284 21.9728V22.5905C108.284 22.9529 108.347 23.2612 108.474 23.5153C108.604 23.7695 108.784 23.9636 109.015 24.0977C109.245 24.2295 109.515 24.2954 109.823 24.2954C110.023 24.2954 110.205 24.2672 110.37 24.2107C110.535 24.1519 110.677 24.0648 110.797 23.9495C110.917 23.8342 111.009 23.6918 111.072 23.5224L112.071 23.7024C111.991 23.9966 111.848 24.2542 111.641 24.4754C111.436 24.6943 111.178 24.8649 110.868 24.9873C110.559 25.1073 110.208 25.1673 109.812 25.1673ZM117.372 20.9597L116.416 21.1292C116.376 21.0068 116.312 20.8903 116.225 20.7797C116.14 20.6691 116.025 20.5785 115.879 20.5079C115.733 20.4373 115.551 20.402 115.332 20.402C115.033 20.402 114.784 20.4691 114.584 20.6032C114.384 20.735 114.284 20.9056 114.284 21.115C114.284 21.2962 114.351 21.4421 114.485 21.5527C114.619 21.6633 114.836 21.7539 115.134 21.8245L115.996 22.0222C116.495 22.1375 116.866 22.3152 117.111 22.5552C117.356 22.7952 117.478 23.107 117.478 23.4906C117.478 23.8154 117.384 24.1048 117.196 24.359C117.01 24.6107 116.75 24.8084 116.416 24.952C116.084 25.0955 115.699 25.1673 115.261 25.1673C114.654 25.1673 114.159 25.0379 113.775 24.779C113.392 24.5178 113.156 24.1472 113.069 23.6671L114.09 23.5118C114.153 23.7777 114.284 23.9789 114.481 24.1154C114.679 24.2495 114.937 24.3166 115.254 24.3166C115.6 24.3166 115.877 24.2448 116.084 24.1013C116.291 23.9554 116.395 23.7777 116.395 23.5683C116.395 23.3988 116.331 23.2565 116.204 23.1412C116.079 23.0259 115.887 22.9388 115.629 22.88L114.711 22.6788C114.205 22.5634 113.831 22.3799 113.588 22.1281C113.348 21.8763 113.228 21.5574 113.228 21.1715C113.228 20.8515 113.318 20.5714 113.497 20.3314C113.675 20.0914 113.922 19.9043 114.238 19.7702C114.553 19.6337 114.914 19.5654 115.321 19.5654C115.907 19.5654 116.369 19.6925 116.705 19.9467C117.042 20.1985 117.264 20.5361 117.372 20.9597Z" fill="#8B85F4"/>
</svg>
